:SAMPLES-PER-SECOND 30
:FRAME-RANGE 1-744
:FULLY-SPECIFIED
:DEGREES
326
root  -13.6932 38.9721 75.8049 -13.8646 -3.85983 2.28926
RightUpLeg  -7.10757 19.1445 -1.61133
RightLeg  47.5343 -5.35343 -6.55905
RightFoot  -8.85818 -0.199479 6.41685
RightToes  5.82063e-011 0 -3.6325e-017
Spine  17.1774 5.48927 10.4248
Spine1  -3.33381 8.60273 -11.076
HEad  -5.89485 54.2538 -12.6927
LeftShoulder1  2.76742 -3.07131 -36.0236
LeftArm  11.7032 13.869 -29.5404
LeftForeArm  -3.46779 -10.9604 -14.3623
LeftHand  -1.09902 -5.04521 12.4906
RightShoulder  8.56142 7.5134 66.3631
RightArm  34.9148 0.99331 -4.18024
RightForeArm  -13.0559 17.8851 9.02126
RightHand  1.39315 18.292 6.28283
LeftUpLeg  7.66565 -6.59246 -12.7117
LeftLeg  12.527 -1.22991 3.70697
LeftFoot  -5.92678 -0.479859 10.8698
LeftToes  1.25507e-010 -3.78807e-010 5.71421e-011
327
root  -13.909 39.044 76.885 -13.8137 -0.527588 2.04353
RightUpLeg  -7.81656 24.6032 -3.38927
RightLeg  37.1082 -9.6198 -7.97996
RightFoot  -8.35592 -0.251077 7.4417
RightToes  5.82063e-011 0 -3.6325e-017
Spine  17.0852 5.21785 10.8169
Spine1  -3.41929 8.39095 -10.5385
HEad  -6.75498 52.9723 -13.8479
LeftShoulder1  2.79809 -3.15966 -35.9293
LeftArm  11.599 13.2105 -28.809
LeftForeArm  -3.26238 -11.1603 -14.2107
LeftHand  -1.19755 -5.30287 13.262
RightShoulder  8.62326 7.70797 65.7887
RightArm  35.2756 1.37802 -3.65128
RightForeArm  -14.8827 19.7187 7.5947
RightHand  1.38074 18.4053 6.18971
LeftUpLeg  10.1784 -6.30494 -12.7373
LeftLeg  11.5271 -3.77116 3.65234
LeftFoot  -7.11001 -0.382034 11.4625
LeftToes  1.25507e-010 -3.78807e-010 5.71421e-011
328
root  -14.1153 39.0141 78.0101 -13.5418 2.7795 2.30641
RightUpLeg  -7.69375 33.1191 -6.62139
RightLeg  25.085 -13.8196 -7.16416
RightFoot  -7.57158 -0.307767 7.77301
RightToes  5.82063e-011 0 -3.6325e-017
Spine  16.7164 5.03068 11.0051
Spine1  -3.44161 8.27094 -10.6372
HEad  -7.16867 51.3327 -14.6315
LeftShoulder1  2.81124 -3.22166 -35.7429
LeftArm  13.6436 12.6302 -27.3952
LeftForeArm  -5.2966 -12.0925 -13.8288
LeftHand  -1.17391 -5.39719 12.9
RightShoulder  8.84813 8.05015 65.549
RightArm  34.7622 2.07453 -3.43193
RightForeArm  -15.9376 21.3985 6.48826
RightHand  1.37217 18.5224 6.11479
LeftUpLeg  12.1325 -6.85778 -13.3386
LeftLeg  11.3192 -6.40813 3.62646
LeftFoot  -8.73844 -0.203768 11.2521
LeftToes  1.25507e-010 -3.78807e-010 5.71421e-011
329
root  -14.3482 38.8473 79.232 -13.083 5.77567 3.19368
RightUpLeg  -6.89883 36.9466 -10.0147
RightLeg  12.8501 -9.3998 -6.16129
RightFoot  -8.13479 -0.293218 8.481
RightToes  5.82063e-011 0 -3.6325e-017
Spine  16.0464 5.24051 10.6676
Spine1  -3.49697 8.47679 -11.2477
HEad  -6.69846 49.2668 -14.3685
LeftShoulder1  2.83945 -3.34878 -35.3887
LeftArm  14.6953 11.9433 -25.7741
LeftForeArm  -6.63273 -12.4918 -13.6896
LeftHand  -1.11499 -5.43324 12.2339
RightShoulder  9.12085 8.48598 65.1792
RightArm  32.899 2.74201 -3.22745
RightForeArm  -16.3075 22.8211 5.92191
RightHand  1.42802 18.6194 6.35423
LeftUpLeg  13.5373 -6.21494 -13.8924
LeftLeg  12.0383 -8.87862 3.29046
LeftFoot  -11.0899 0.0415588 11.5148
LeftToes  1.25507e-010 -3.78807e-010 5.71421e-011
330
root  -14.5721 38.6127 80.5009 -12.7674 9.02161 4.01212
RightUpLeg  -4.19467 8.26086 -8.68582
RightLeg  -1.17562 23.7832 -13.0934
RightFoot  -9.52279 -0.237869 10.8666
RightToes  5.82063e-011 0 -3.6325e-017
Spine  15.4463 5.21092 10.4579
Spine1  -3.7258 8.47346 -11.94
HEad  -5.88044 47.5148 -14.1447
LeftShoulder1  2.83476 -3.34878 -35.3216
LeftArm  16.8403 11.1959 -23.4191
LeftForeArm  -8.6697 -13.3161 -13.3383
LeftHand  -1.11924 -5.47036 12.2391
RightShoulder  9.55499 9.08056 65.0753
RightArm  30.3896 3.62982 -3.27338
RightForeArm  -16.1897 24.1399 5.94451
RightHand  1.38863 18.4907 6.20296
LeftUpLeg  15.0194 -7.07566 -14.6134
LeftLeg  13.4592 -10.8222 2.58369
LeftFoot  -13.4786 0.305556 11.9736
LeftToes  1.25507e-010 -3.78807e-010 5.71421e-011
331
root  -14.841 38.3237 81.7893 -12.3905 12.2189 4.66132
RightUpLeg  -4.76613 -2.07527 -10.601
RightLeg  -6.58924 33.3588 -14.3096
RightFoot  -11.9364 0.00411327 16.3932
RightToes  5.82063e-011 0 -3.6325e-017
Spine  14.8091 5.19107 10.0422
Spine1  -4.01451 8.41595 -12.5149
HEad  -4.81167 46.0097 -14.0089
LeftShoulder1  2.83774 -3.3762 -35.2028
LeftArm  18.7969 10.6059 -20.911
LeftForeArm  -12.027 -14.4046 -12.7941
LeftHand  -1.09749 -5.01484 12.5084
RightShoulder  10.0798 9.79227 64.9916
RightArm  28.0501 4.81891 -3.06075
RightForeArm  -15.7901 25.1279 6.15378
RightHand  1.25431 18.2767 5.61373
LeftUpLeg  16.2786 -10.6473 -15.8837
LeftLeg  15.7135 -9.91585 1.79568
LeftFoot  -16.0515 0.615444 12.5549
LeftToes  1.25507e-010 -3.78807e-010 5.71421e-011
332
root  -15.1765 38.1115 83.038 -12.2702 14.2831 4.41089
RightUpLeg  -4.68674 -3.70963 -11.2235
RightLeg  -6.79052 29.6798 -12.3402
RightFoot  -11.9735 0.0132263 17.1149
RightToes  5.82063e-011 0 -3.6325e-017
Spine  15.0735 5.36326 10.9415
Spine1  -4.66718 8.69919 -12.6779
HEad  -3.69535 44.8561 -13.9195
LeftShoulder1  2.81646 -3.33699 -35.1291
LeftArm  18.5046 10.2216 -18.5549
LeftForeArm  -14.1136 -14.9493 -12.4396
LeftHand  -1.11477 -4.33558 13.5437
RightShoulder  10.8943 10.8464 65.0738
RightArm  26.4695 6.13171 -2.79826
RightForeArm  -16.4884 25.7103 6.32143
RightHand  1.01105 17.9843 4.4966
LeftUpLeg  17.775 -15.7009 -16.4067
LeftLeg  17.5839 -6.79653 0.56185
LeftFoot  -18.4739 0.880168 12.283
LeftToes  1.25507e-010 -3.78807e-010 5.71421e-011
333
root  -15.5603 37.9687 84.2923 -12.4091 15.8552 3.76073
RightUpLeg  -3.96147 -2.92105 -10.2352
RightLeg  -4.55553 23.8083 -11.0295
RightFoot  -10.2907 -0.208987 15.0457
RightToes  5.82063e-011 0 -3.6325e-017
Spine  15.2733 5.55649 12.2169
Spine1  -4.56176 9.07934 -12.3397
HEad  -3.70511 43.7661 -14.2554
LeftShoulder1  2.79053 -3.3902 -34.4475
LeftArm  17.1496 10.6106 -16.7477
LeftForeArm  -16.8839 -15.9568 -11.6321
LeftHand  -1.12191 -3.92938 14.1953
RightShoulder  12.0527 12.325 65.2452
RightArm  24.8883 7.59436 -2.13269
RightForeArm  -15.4642 26.1446 6.37736
RightHand  0.797719 17.5599 3.52299
LeftUpLeg  20.0674 -19.2893 -16.1735
LeftLeg  17.9856 -4.71153 -0.297208
LeftFoot  -20.3081 1.0758 12.1084
LeftToes  1.25507e-010 -3.78807e-010 5.71421e-011
334
root  -16.0195 37.7232 85.6582 -12.2383 17.8675 3.44737
RightUpLeg  -3.57513 -1.19439 -9.19939
RightLeg  -1.76187 24.1211 -11.0757
RightFoot  -8.23814 -0.649957 21.6643
RightToes  5.82063e-011 0 -3.6325e-017
Spine  14.9441 5.73196 12.1949
Spine1  -4.48289 9.21179 -11.9507
HEad  -4.27144 42.9229 -14.5452
LeftShoulder1  2.78231 -3.43117 -34.095
LeftArm  17.3868 10.8968 -14.1568
LeftForeArm  -21.85 -17.6494 -10.392
LeftHand  -1.07506 -3.74593 13.88
RightShoulder  13.3459 13.8689 65.7448
RightArm  23.4053 9.28124 -1.39116
RightForeArm  -12.7532 26.5016 6.33578
RightHand  0.696383 17.6752 2.99629
LeftUpLeg  21.9527 -21.5476 -15.5251
LeftLeg  18.6919 -4.72738 -1.24468
LeftFoot  -22.5184 1.29177 11.7678
LeftToes  1.25507e-010 -3.78807e-010 5.71421e-011
335
root  -16.4785 37.6139 86.9217 -12.4656 20.6208 1.8315
RightUpLeg  -3.97149 2.68901 -7.44191
RightLeg  3.27991 19.9342 -8.71684
RightFoot  -4.03978 -1.59351 24.198
RightToes  5.82063e-011 0 -3.6325e-017
Spine  15.6788 5.23933 13.7396
Spine1  -5.61361 8.99229 -11.8762
HEad  -4.63996 42.1566 -14.9943
LeftShoulder1  2.78275 -3.38014 -34.3943
LeftArm  16.6809 10.106 -11.3427
LeftForeArm  -25.0154 -18.376 -9.87963
LeftHand  -1.07739 -3.61506 14.1026
RightShoulder  14.4173 15.0524 66.3834
RightArm  22.2174 10.9173 -0.752504
RightForeArm  -11.4983 26.8953 6.36974
RightHand  0.567274 17.7375 2.34368
LeftUpLeg  22.7852 -23.203 -12.8587
LeftLeg  20.4736 -6.48176 -2.34301
LeftFoot  -23.9457 1.32198 10.6288
LeftToes  1.25507e-010 -3.78807e-010 5.71421e-011
336
root  -16.9271 37.599 88.1427 -13.0887 23.1936 0.123169
RightUpLeg  -4.73131 9.91059 -6.37836
RightLeg  9.92163 10.0366 -4.74691
RightFoot  -4.267 -1.48493 23.2462
RightToes  5.82063e-011 0 -3.6325e-017
Spine  16.0911 5.16307 14.985
Spine1  -5.66143 9.15673 -11.3153
HEad  -4.99387 41.055 -15.6544
LeftShoulder1  2.8271 -3.48176 -34.4415
LeftArm  13.3684 8.66891 -10.68
LeftForeArm  -27.0574 -17.7639 -10.3732
LeftHand  -1.07904 -2.63242 15.7787
RightShoulder  15.3273 16.3248 66.0997
RightArm  20.7757 12.3827 -0.00442482
RightForeArm  -11.6824 26.987 6.40051
RightHand  0.50118 17.7999 2.00737
LeftUpLeg  22.6121 -24.5572 -10.0799
LeftLeg  24.0188 -7.88505 -3.49829
LeftFoot  -24.0571 1.02372 7.87305
LeftToes  1.25507e-010 -3.78807e-010 5.71421e-011
337
root  -17.3569 37.7565 89.2874 -13.4215 26.6257 -0.931458
RightUpLeg  -3.9033 9.60462 -4.84964
RightLeg  12.1253 6.65832 -3.92221
RightFoot  -3.02492 -1.48242 19.9167
RightToes  5.82063e-011 0 -3.6325e-017
Spine  15.8747 4.99785 15.1859
Spine1  -4.99266 9.105 -10.1084
HEad  -5.29273 39.6805 -15.3924
LeftShoulder1  2.86156 -3.7098 -33.6512
LeftArm  8.93886 7.65862 -11.4817
LeftForeArm  -28.5473 -17.0752 -10.7468
LeftHand  -1.04869 -1.97188 16.6678
RightShoulder  16.2911 17.6348 65.9338
RightArm  18.9985 13.4818 0.41929
RightForeArm  -11.6718 27.1021 6.42761
RightHand  0.621665 17.8767 2.59484
LeftUpLeg  21.013 -25.1799 -7.1992
LeftLeg  28.0194 -8.79236 -4.71115
LeftFoot  -21.742 0.516155 4.23301
LeftToes  1.25507e-010 -3.78807e-010 5.71421e-011
